<svg width="18" height="18" viewBox="0 0 18 18" fill="none" xmlns="http://www.w3.org/2000/svg">
<path d="M8.9964 12.5075V10.6048M11.6214 3.99426V3.71976C11.6214 2.80476 10.8789 2.06226 9.9639 2.06226H8.0289C7.1139 2.06226 6.3714 2.80476 6.3714 3.71976V3.99426M2.08087 11.6122L2.22262 13.4939C2.31862 14.7622 3.37537 15.7424 4.64662 15.7424H13.3459C14.6171 15.7424 15.6739 14.7622 15.7699 13.4939L15.9116 11.6122M13.6425 3.99756C14.91 3.99756 15.93 5.02506 15.93 6.29256V8.87256C14.085 9.95256 11.6475 10.6051 8.9925 10.6051C6.3375 10.6051 3.9075 9.95256 2.0625 8.87256V6.28506C2.0625 5.01756 3.09 3.99756 4.3575 3.99756H13.6425Z" stroke="#717680" stroke-width="1.5" stroke-linecap="round" stroke-linejoin="round"/>
</svg>
