<svg width="20" height="20" viewBox="0 0 20 20" fill="none" xmlns="http://www.w3.org/2000/svg">
<path d="M9.9952 14.677V12.14M13.4952 3.326V2.96C13.4952 1.74 12.5052 0.75 11.2852 0.75H8.7052C7.4852 0.75 6.4952 1.74 6.4952 2.96V3.326M0.7745 13.4832L0.9635 15.9922C1.0915 17.6832 2.5005 18.9902 4.1955 18.9902H15.7945C17.4895 18.9902 18.8985 17.6832 19.0265 15.9922L19.2155 13.4832M16.19 3.3304C17.88 3.3304 19.24 4.7004 19.24 6.3904V9.8304C16.78 11.2704 13.53 12.1404 9.99 12.1404C6.45 12.1404 3.21 11.2704 0.75 9.8304V6.3804C0.75 4.6904 2.12 3.3304 3.81 3.3304H16.19Z" stroke="#F4781B" stroke-width="1.5" stroke-linecap="round" stroke-linejoin="round"/>
</svg>
