<svg width="136" height="116" viewBox="0 0 136 116" fill="none" xmlns="http://www.w3.org/2000/svg">
<path d="M97.7927 7.63574C99.3007 7.63574 100.577 8.79007 100.577 10.4061V92.1326C100.577 93.6332 99.4167 94.903 97.7927 94.903H37.3544C35.8464 94.903 34.5703 93.7487 34.5703 92.1326V10.4061C34.5703 8.9055 35.7304 7.63574 37.3544 7.63574H97.7927Z" fill="#CED7E2"/>
<path d="M100.577 16.1777V92.0171C100.577 93.5177 99.4174 94.7875 97.7934 94.7875H42.5753L37.7031 89.9393L92.5732 14.7925L97.3293 13.061L100.577 16.1777Z" fill="#BCC4CF"/>
<path d="M97.5613 13.9845C97.5613 13.5228 97.2133 13.061 96.6333 13.061H38.6312C38.1671 13.061 37.7031 13.4073 37.7031 13.9845V89.0159C37.7031 89.4776 38.0511 89.9393 38.6312 89.9393H96.5173C96.9813 89.9393 97.4453 89.593 97.4453 89.0159L97.5613 13.9845Z" fill="#D9DFEE"/>
<path d="M97.5611 13.9845C97.5611 13.5228 97.2131 13.061 96.6331 13.061H38.6309C38.1669 13.061 37.7029 13.4073 37.7029 13.9845C38.3989 43.8816 38.6309 77.7035 35.3828 86.4763L90.9489 85.6683C94.313 70.4312 96.8651 43.0736 97.5611 13.9845Z" fill="#EFF3FB"/>
<g filter="url(#filter0_d_954_36936)">
<path d="M97.4436 13.1763C97.4436 13.1763 97.3276 17.6782 95.9355 46.4209C95.9355 46.6518 95.9355 46.7672 95.9355 46.9981C94.1955 75.1637 69.1385 81.0508 66.1224 81.3971C64.7304 81.5125 62.0623 81.7434 57.3061 81.7434C51.3899 81.9743 42.3416 82.0897 28.189 82.2051C27.725 82.2051 27.377 81.7434 27.609 81.2817C37.3534 61.7735 37.4694 13.2917 37.4694 13.2917L97.4436 13.1763Z" fill="white"/>
</g>
<path d="M95.8208 46.8828C94.1968 75.0484 69.0238 80.9355 66.0077 81.2818C64.6157 81.3972 61.9476 81.6281 57.1914 81.6281C69.7199 75.8565 76.4481 65.4675 76.3321 57.3872C82.3643 57.8489 92.8047 57.3872 95.8208 46.8828Z" fill="#EAEEF9"/>
<path d="M81.6673 7.86623C81.6673 7.7508 81.6673 7.7508 81.6673 7.86623L81.0872 7.28907C81.0872 7.28907 80.7392 7.4045 80.6232 7.63537H71.5749C71.5749 7.4045 71.5749 7.28907 71.5749 7.0582C71.5749 5.21128 69.9508 3.59521 68.0948 3.59521C66.2387 3.59521 64.6146 5.21128 64.6146 7.0582C64.6146 7.28907 64.6146 7.4045 64.7306 7.51993H55.3343C54.8703 7.51993 54.4062 7.86623 54.4062 8.55883V11.5601C54.4062 13.8687 56.0303 15.2539 58.2344 15.2539H77.4911C79.8112 15.2539 81.7833 13.8687 81.7833 11.5601V8.4434C81.8993 8.21253 81.7833 7.98166 81.6673 7.86623Z" fill="#1C3754"/>
<path d="M81.3211 7.86645V10.8677C81.3211 11.0986 81.3211 11.214 81.3211 11.4449C80.9731 13.4072 79.3491 15.0233 77.261 15.0233H57.8883C55.8002 15.0233 54.1761 13.4072 53.8281 11.4449C53.8281 11.214 53.8281 11.0986 53.8281 10.8677V7.86645C53.8281 7.40471 54.1761 6.82755 54.7562 6.82755H64.2685C64.2685 6.59668 64.2685 6.48125 64.2685 6.36582C64.2685 4.51889 65.8926 2.90283 67.7486 2.90283C69.6047 2.90283 71.2288 4.51889 71.2288 6.36582C71.2288 6.59668 71.2288 6.71212 71.2288 6.82755H80.7411C80.9731 6.94298 81.3211 7.28928 81.3211 7.86645Z" fill="url(#paint0_linear_954_36936)"/>
<path d="M67.5147 7.98163C68.4427 7.98163 69.1387 7.28903 69.1387 6.36557C69.1387 5.44211 68.4427 4.74951 67.5147 4.74951C66.5867 4.74951 65.8906 5.44211 65.8906 6.36557C65.8906 7.28903 66.7027 7.98163 67.5147 7.98163Z" fill="#EAEEF9"/>
<path d="M81.2051 11.4448C80.8571 13.4072 79.2331 15.0232 77.145 15.0232H57.8883C55.8002 15.0232 54.1761 13.4072 53.8281 11.4448H81.2051Z" fill="#9AA1B2"/>
<path d="M51.9692 46.5365C53.8253 46.5365 55.2174 45.0359 55.2174 43.3044C55.2174 41.4575 53.7093 40.0723 51.9692 40.0723C50.1132 40.0723 48.7211 41.5729 48.7211 43.3044C48.6051 45.0359 50.1132 46.5365 51.9692 46.5365Z" fill="#989FB0"/>
<path d="M77.7247 46.4208C79.5808 46.4208 80.9728 44.9202 80.9728 43.1887C80.9728 41.3417 79.4647 39.9565 77.7247 39.9565C75.9846 39.9565 74.4766 41.4572 74.4766 43.1887C74.4766 44.9202 75.8686 46.4208 77.7247 46.4208Z" fill="#989FB0"/>
<path d="M67.9791 49.9995H61.7148V51.5001H67.9791V49.9995Z" fill="#989FB0"/>
<path d="M130.506 13.5225C133.059 25.5275 132.711 38.2251 129.23 49.9993C128.418 52.4233 127.606 55.0783 125.866 56.9252C123.43 59.811 119.022 61.0808 115.426 60.1573C111.714 59.2339 108.698 56.0018 108.002 52.077C107.422 49.653 108.234 46.7671 110.322 45.2665C112.526 43.8813 115.658 44.2276 117.514 45.9591C119.602 47.6906 120.414 50.3456 120.298 52.8851C120.182 55.4246 119.254 57.9641 117.978 60.1573C114.15 67.3142 107.19 72.9704 99.1853 75.5099C93.2691 77.3569 86.8889 77.3568 80.9727 75.7408" stroke="#C9D4E2" stroke-width="2" stroke-miterlimit="10" stroke-dasharray="4 4"/>
<path d="M135.379 10.0598C135.031 11.3296 133.639 11.7913 132.247 10.9833C130.739 10.2907 129.695 9.71354 129.927 8.55921C130.275 7.40488 131.667 7.28945 133.291 7.17402C135.263 6.94315 135.611 8.79008 135.379 10.0598Z" fill="#DAE2EB"/>
<path d="M124.124 11.2142C124.704 12.253 126.328 12.9456 127.488 11.9067C128.764 10.7524 129.808 9.94439 129.228 8.79006C128.648 7.75116 127.72 8.09746 125.748 8.32833C124.124 8.67463 123.428 10.0598 124.124 11.2142Z" fill="#DAE2EB"/>
<path d="M129.228 6.94297C130.04 6.82754 130.852 7.28927 131.084 7.98187C131.2 8.21273 131.316 8.55903 131.316 8.7899C131.548 10.406 130.968 11.7912 130.04 11.9066C128.996 12.1375 127.952 10.9831 127.836 9.48249C127.836 9.02076 127.836 8.7899 127.836 8.4436C127.952 7.63557 128.416 7.0584 129.228 6.94297C129.344 6.94297 129.228 6.94297 129.228 6.94297Z" fill="#989FB0"/>
<defs>
<filter id="filter0_d_954_36936" x="5.53516" y="2.17627" width="113.91" height="113.029" filterUnits="userSpaceOnUse" color-interpolation-filters="sRGB">
<feFlood flood-opacity="0" result="BackgroundImageFix"/>
<feColorMatrix in="SourceAlpha" type="matrix" values="0 0 0 0 0 0 0 0 0 0 0 0 0 0 0 0 0 0 127 0" result="hardAlpha"/>
<feOffset dy="11"/>
<feGaussianBlur stdDeviation="11"/>
<feColorMatrix type="matrix" values="0 0 0 0 0.397708 0 0 0 0 0.47749 0 0 0 0 0.575 0 0 0 0.27 0"/>
<feBlend mode="normal" in2="BackgroundImageFix" result="effect1_dropShadow_954_36936"/>
<feBlend mode="normal" in="SourceGraphic" in2="effect1_dropShadow_954_36936" result="shape"/>
</filter>
<linearGradient id="paint0_linear_954_36936" x1="53.8613" y1="8.96456" x2="81.3476" y2="8.96456" gradientUnits="userSpaceOnUse">
<stop stop-color="#B0BACC"/>
<stop offset="1" stop-color="#969EAE"/>
</linearGradient>
</defs>
</svg>
