<svg width="20" height="20" viewBox="0 0 20 20" fill="none" xmlns="http://www.w3.org/2000/svg">
<path d="M0.75 9.75H18.75M0.75 9.75C0.75 14.7206 4.77944 18.75 9.75 18.75M0.75 9.75C0.75 4.77944 4.77944 0.75 9.75 0.75M18.75 9.75C18.75 14.7206 14.7206 18.75 9.75 18.75M18.75 9.75C18.75 4.77944 14.7206 0.75 9.75 0.75M9.75 0.75C12.0012 3.21452 13.2805 6.41283 13.35 9.75C13.2805 13.0872 12.0012 16.2855 9.75 18.75M9.75 0.75C7.49885 3.21452 6.21952 6.41283 6.15 9.75C6.21952 13.0872 7.49885 16.2855 9.75 18.75" stroke="#F4781B" stroke-width="1.5" stroke-linecap="round" stroke-linejoin="round"/>
</svg>
