<svg width="24" height="24" viewBox="0 0 24 24" fill="none" xmlns="http://www.w3.org/2000/svg">
<path d="M10.65 19.11V4.89C10.65 3.54 10.074 3 8.643 3H5.007C3.576 3 3 3.54 3 4.89V19.11C3 20.46 3.576 21 5.007 21H8.643C10.074 21 10.65 20.46 10.65 19.11Z" stroke="#A4A7AE" stroke-width="1.5" stroke-linecap="round" stroke-linejoin="round"/>
<path d="M21 12.81V4.89C21 3.54 20.424 3 18.993 3H15.357C13.926 3 13.35 3.54 13.35 4.89V12.81C13.35 14.16 13.926 14.7 15.357 14.7H18.993C20.424 14.7 21 14.16 21 12.81Z" stroke="#A4A7AE" stroke-width="1.5" stroke-linecap="round" stroke-linejoin="round"/>
</svg>
