<svg width="20" height="20" viewBox="0 0 20 20" fill="none" xmlns="http://www.w3.org/2000/svg">
<path d="M14.9052 9.0805C16.0677 8.91717 16.9627 7.9205 16.9652 6.713C16.9652 5.523 16.0977 4.53634 14.9602 4.34967M16.4392 11.8752C17.565 12.0435 18.3509 12.4377 18.3509 13.2502C18.3509 13.8093 17.9809 14.1727 17.3825 14.401M4.90278 9.0805C3.73945 8.91717 2.84528 7.9205 2.84278 6.713C2.84278 5.523 3.71028 4.53634 4.84778 4.34967M3.3687 11.8752C2.24286 12.0435 1.45703 12.4377 1.45703 13.2502C1.45703 13.8093 1.82703 14.1727 2.42536 14.401M9.90436 12.2198C7.22603 12.2198 4.93853 12.6256 4.93853 14.2464C4.93853 15.8664 7.21186 16.2839 9.90436 16.2839C12.5827 16.2839 14.8694 15.8823 14.8694 14.2606C14.8694 12.6389 12.5969 12.2198 9.90436 12.2198ZM9.90436 9.9065C11.6619 9.9065 13.0869 8.48234 13.0869 6.724C13.0869 4.9665 11.6619 3.5415 9.90436 3.5415C8.14686 3.5415 6.72186 4.9665 6.72186 6.724C6.7152 8.47567 8.12936 9.90067 9.88103 9.9065H9.90436Z" stroke="#717680" stroke-width="1.5" stroke-linecap="round" stroke-linejoin="round"/>
</svg>
