<svg width="24" height="24" viewBox="0 0 24 24" fill="none" xmlns="http://www.w3.org/2000/svg">
<path d="M23.1412 12C23.1412 18.1541 18.1524 23.1429 11.9983 23.1429C5.8443 23.1429 0.855469 18.1541 0.855469 12C0.855469 5.846 5.8443 0.857178 11.9983 0.857178C18.1524 0.857178 23.1412 5.846 23.1412 12ZM4.19833 12C4.19833 16.3079 7.69051 19.8 11.9983 19.8C16.3061 19.8 19.7983 16.3079 19.7983 12C19.7983 7.69221 16.3061 4.20004 11.9983 4.20004C7.69051 4.20004 4.19833 7.69221 4.19833 12Z" fill="#F5F5F5"/>
<path d="M12.493 21.4612C12.5412 22.3816 11.8306 23.1797 10.9133 23.09C8.92468 22.8954 7.01388 22.1683 5.38879 20.9709C3.31332 19.4418 1.83227 17.2403 1.198 14.7416C0.563722 12.2429 0.815465 9.60155 1.91033 7.26763C3.0052 4.93372 4.87544 3.05164 7.2024 1.94208C9.52936 0.832521 12.1691 0.564127 14.6717 1.18263C17.1744 1.80114 19.3852 3.26827 20.9274 5.33406C22.4696 7.39984 23.2478 9.93646 23.1294 12.5117C23.0367 14.5281 22.3989 16.4705 21.2982 18.1382C20.7905 18.9074 19.723 18.957 19.0382 18.3403C18.3533 17.7235 18.317 16.674 18.7744 15.8739C19.3847 14.8063 19.7381 13.6025 19.7953 12.3584C19.8782 10.5546 19.3331 8.77774 18.2529 7.33072C17.1726 5.8837 15.624 4.85602 13.871 4.42278C12.1179 3.98953 10.2689 4.17753 8.63893 4.95475C7.00897 5.73196 5.69892 7.0503 4.932 8.68513C4.16508 10.32 3.98874 12.1701 4.43303 13.9204C4.87732 15.6707 5.91475 17.2128 7.36855 18.2839C8.37118 19.0226 9.52906 19.5058 10.7427 19.7036C11.6524 19.8519 12.4449 20.5408 12.493 21.4612Z" fill="#17B26A"/>
</svg>
