<svg width="120" height="120" viewBox="0 0 120 120" fill="none" xmlns="http://www.w3.org/2000/svg">
<path opacity="0.1" d="M59.7403 103.826C84.0888 103.826 103.827 84.0876 103.827 59.7391C103.827 35.3905 84.0888 15.6521 59.7403 15.6521C35.3917 15.6521 15.6533 35.3905 15.6533 59.7391C15.6533 84.0876 35.3917 103.826 59.7403 103.826Z" fill="#17B26A"/>
<path opacity="0.1" d="M59.7401 93.3913C78.3256 93.3913 93.3922 78.3247 93.3922 59.7391C93.3922 41.1535 78.3256 26.0869 59.7401 26.0869C41.1545 26.0869 26.0879 41.1535 26.0879 59.7391C26.0879 78.3247 41.1545 93.3913 59.7401 93.3913Z" fill="#17B26A"/>
<circle cx="60.0007" cy="59.4782" r="21.3913" fill="#17B26A"/>
<path d="M53.0723 59.4779L57.2401 63.6446L65.5723 55.3113" stroke="white" stroke-width="2" stroke-linecap="round" stroke-linejoin="round"/>
</svg>
