<svg width="24" height="24" viewBox="0 0 24 24" fill="none" xmlns="http://www.w3.org/2000/svg">
<path d="M9.97055 5.57746L10.5728 7.24996C10.9033 8.16684 11.4319 8.99954 12.1211 9.6887C12.8102 10.3779 13.6429 10.9065 14.5598 11.237L16.2323 11.8392C16.2653 11.8513 16.2938 11.8733 16.314 11.9021C16.3341 11.931 16.3449 11.9653 16.3449 12.0005C16.3449 12.0356 16.3341 12.07 16.314 12.0988C16.2938 12.1276 16.2653 12.1496 16.2323 12.1617L14.5598 12.764C13.6429 13.0944 12.8102 13.6231 12.1211 14.3122C11.4319 15.0014 10.9033 15.8341 10.5728 16.751L9.97055 18.4235C9.95844 18.4565 9.93648 18.485 9.90764 18.5051C9.8788 18.5253 9.84448 18.5361 9.8093 18.5361C9.77413 18.5361 9.7398 18.5253 9.71096 18.5051C9.68212 18.485 9.66016 18.4565 9.64805 18.4235L9.0458 16.751C8.71534 15.8341 8.18669 15.0014 7.49754 14.3122C6.80838 13.6231 5.97568 13.0944 5.0588 12.764L3.3863 12.1617C3.35328 12.1496 3.32476 12.1276 3.30462 12.0988C3.28448 12.07 3.27368 12.0356 3.27368 12.0005C3.27368 11.9653 3.28448 11.931 3.30462 11.9021C3.32476 11.8733 3.35328 11.8513 3.3863 11.8392L5.0588 11.237C5.97568 10.9065 6.80838 10.3779 7.49754 9.6887C8.18669 8.99954 8.71534 8.16684 9.0458 7.24996L9.64805 5.57746C9.65983 5.5441 9.68166 5.51522 9.71054 5.49478C9.73942 5.47435 9.77392 5.46338 9.8093 5.46338C9.84468 5.46338 9.87918 5.47435 9.90806 5.49478C9.93694 5.51522 9.95878 5.5441 9.97055 5.57746ZM17.4991 1.55821L17.8043 2.40496C17.9718 2.86919 18.2395 3.29079 18.5885 3.63976C18.9375 3.98873 19.3591 4.25648 19.8233 4.42396L20.6701 4.72921C20.6868 4.73532 20.7013 4.74644 20.7116 4.76106C20.7218 4.77569 20.7273 4.79311 20.7273 4.81096C20.7273 4.82881 20.7218 4.84623 20.7116 4.86086C20.7013 4.87548 20.6868 4.8866 20.6701 4.89271L19.8233 5.19796C19.3591 5.36544 18.9375 5.63319 18.5885 5.98216C18.2395 6.33113 17.9718 6.75273 17.8043 7.21696L17.4991 8.06371C17.4929 8.08049 17.4818 8.09498 17.4672 8.10522C17.4526 8.11546 17.4352 8.12095 17.4173 8.12095C17.3994 8.12095 17.382 8.11546 17.3674 8.10522C17.3528 8.09498 17.3417 8.08049 17.3356 8.06371L17.0303 7.21696C16.8628 6.75273 16.5951 6.33113 16.2461 5.98216C15.8971 5.63319 15.4755 5.36544 15.0113 5.19796L14.1646 4.89271C14.1478 4.8866 14.1333 4.87548 14.123 4.86086C14.1128 4.84623 14.1073 4.82881 14.1073 4.81096C14.1073 4.79311 14.1128 4.77569 14.123 4.76106C14.1333 4.74644 14.1478 4.73532 14.1646 4.72921L15.0113 4.42396C15.4755 4.25648 15.8971 3.98873 16.2461 3.63976C16.5951 3.29079 16.8628 2.86919 17.0303 2.40496L17.3356 1.55821C17.3417 1.54144 17.3528 1.52695 17.3674 1.51671C17.382 1.50647 17.3994 1.50098 17.4173 1.50098C17.4352 1.50098 17.4526 1.50647 17.4672 1.51671C17.4818 1.52695 17.4929 1.54144 17.4991 1.55821ZM17.4991 15.938L17.8043 16.7847C17.9718 17.2489 18.2395 17.6705 18.5885 18.0195C18.9375 18.3685 19.3591 18.6362 19.8233 18.8037L20.6701 19.109C20.6868 19.1151 20.7013 19.1262 20.7116 19.1408C20.7218 19.1554 20.7273 19.1729 20.7273 19.1907C20.7273 19.2086 20.7218 19.226 20.7116 19.2406C20.7013 19.2552 20.6868 19.2664 20.6701 19.2725L19.8233 19.5777C19.3591 19.7452 18.9375 20.0129 18.5885 20.3619C18.2395 20.7109 17.9718 21.1325 17.8043 21.5967L17.4991 22.4435C17.4929 22.4602 17.4818 22.4747 17.4672 22.485C17.4526 22.4952 17.4352 22.5007 17.4173 22.5007C17.3994 22.5007 17.382 22.4952 17.3674 22.485C17.3528 22.4747 17.3417 22.4602 17.3356 22.4435L17.0303 21.5967C16.8628 21.1325 16.5951 20.7109 16.2461 20.3619C15.8971 20.0129 15.4755 19.7452 15.0113 19.5777L14.1646 19.2725C14.1478 19.2664 14.1333 19.2552 14.123 19.2406C14.1128 19.226 14.1073 19.2086 14.1073 19.1907C14.1073 19.1729 14.1128 19.1554 14.123 19.1408C14.1333 19.1262 14.1478 19.1151 14.1646 19.109L15.0113 18.8037C15.4755 18.6362 15.8971 18.3685 16.2461 18.0195C16.5951 17.6705 16.8628 17.2489 17.0303 16.7847L17.3356 15.938C17.3633 15.8615 17.4721 15.8615 17.4991 15.938Z" fill="url(#paint0_linear_40000336_15069)"/>
<defs>
<linearGradient id="paint0_linear_40000336_15069" x1="20.7273" y1="1.50098" x2="0.0817292" y2="18.6602" gradientUnits="userSpaceOnUse">
<stop stop-color="#EB001B"/>
<stop offset="1" stop-color="#F79E1B"/>
</linearGradient>
</defs>
</svg>
