<svg width="64" height="33" viewBox="0 0 64 33" fill="none" xmlns="http://www.w3.org/2000/svg">
<path d="M38.4039 14.9776L51.579 0H41.9333C40.5158 0 39.1702 0.622436 38.2491 1.70537L28.9561 13.0852L29.7296 24.0764L32.0106 21.1082L39.3968 30.556C40.2927 31.898 41.8002 32.7039 43.412 32.7039H51.9999L38.4039 14.974V14.9776Z" fill="#1B1815"/>
<path d="M20.7505 24.0918V31.7661C20.7505 32.3183 21.1982 32.7661 21.7505 32.7661H28.8061C29.3584 32.7661 29.8061 32.3183 29.8061 31.7661V24.0918H27.6618H20.7505Z" fill="url(#paint0_linear_40001445_120733)"/>
<path d="M38.4043 16.0371C38.4043 15.4848 37.9566 15.0371 37.4043 15.0371H29.73V17.1814V24.0928H37.4043C37.9566 24.0928 38.4043 23.645 38.4043 23.0928V16.0371Z" fill="url(#paint1_linear_40001445_120733)"/>
<path d="M29.7299 15.0371H20.6743V24.0928H27.5857H29.7299V17.1814V15.0371Z" fill="url(#paint2_linear_40001445_120733)"/>
<path d="M20.6743 15.0371H13C12.4477 15.0371 12 15.4848 12 16.0371V23.0928C12 23.645 12.4477 24.0928 13 24.0928H20.6743V15.0371Z" fill="url(#paint3_linear_40001445_120733)"/>
<path d="M28.8061 6.38867H21.7505C21.1982 6.38867 20.7505 6.83639 20.7505 7.38867V15.0629H29.8061V7.38867C29.8061 6.83639 29.3584 6.38867 28.8061 6.38867Z" fill="url(#paint4_linear_40001445_120733)"/>
<defs>
<linearGradient id="paint0_linear_40001445_120733" x1="37.3687" y1="15.2161" x2="17.8795" y2="36.515" gradientUnits="userSpaceOnUse">
<stop stop-color="#EA001B"/>
<stop offset="1" stop-color="#F69D1B"/>
</linearGradient>
<linearGradient id="paint1_linear_40001445_120733" x1="37.7027" y1="15.5912" x2="18.2134" y2="36.8937" gradientUnits="userSpaceOnUse">
<stop stop-color="#EA001B"/>
<stop offset="1" stop-color="#F69D1B"/>
</linearGradient>
<linearGradient id="paint2_linear_40001445_120733" x1="32.878" y1="11.1767" x2="13.3887" y2="32.4756" gradientUnits="userSpaceOnUse">
<stop stop-color="#EA001B"/>
<stop offset="1" stop-color="#F69D1B"/>
</linearGradient>
<linearGradient id="paint3_linear_40001445_120733" x1="28.0533" y1="6.76218" x2="8.56407" y2="28.0611" gradientUnits="userSpaceOnUse">
<stop stop-color="#EA001B"/>
<stop offset="1" stop-color="#F69D1B"/>
</linearGradient>
<linearGradient id="paint4_linear_40001445_120733" x1="28.5397" y1="7.1622" x2="9.04689" y2="28.4647" gradientUnits="userSpaceOnUse">
<stop stop-color="#EA001B"/>
<stop offset="1" stop-color="#F69D1B"/>
</linearGradient>
</defs>
</svg>
