<svg width="192" height="32" viewBox="0 0 192 32" fill="none" xmlns="http://www.w3.org/2000/svg">
<g clip-path="url(#clip0_4194_18385)">
<path d="M35.0391 19.1546V19.0639C35.0391 11.8398 40.2067 6.12402 47.514 6.12402C56.0612 6.12402 59.9889 12.3879 59.9889 19.6574C59.9889 20.2055 59.9889 20.8444 59.9435 21.4379H43.4048C44.0928 24.137 46.051 25.5093 48.7539 25.5093C50.8104 25.5093 52.4586 24.7305 54.2391 22.9954L57.2633 25.5093C57.5035 25.709 57.6977 25.9584 57.8325 26.2403C57.9673 26.5222 58.0395 26.8299 58.0442 27.1424C58.0488 27.4548 57.9859 27.7645 57.8595 28.0503C57.7332 28.3361 57.5466 28.5912 57.3124 28.7981C55.0783 30.7714 52.141 32 48.2851 32C40.5242 32 35.0391 26.8399 35.0391 19.1546ZM51.8613 17.0112C51.5437 14.2705 49.9409 12.5316 47.5669 12.5316C45.2987 12.5316 43.7261 14.3159 43.2687 17.0112H51.8613Z" fill="black"/>
<path d="M139.816 6.12402H146.821C147.544 6.12684 148.247 6.35693 148.831 6.78167C149.415 7.20642 149.851 7.80427 150.076 8.49047L154.234 21.1279L158.393 8.49047C158.618 7.80212 159.055 7.20263 159.642 6.77764C160.229 6.35265 160.934 6.12388 161.659 6.12402H168.52L158.283 32H150.076L139.816 6.12402Z" fill="black"/>
<path d="M25.8368 14.6523L38.7275 1.50286e-08H29.2768C28.5913 -5.46513e-05 27.9141 0.149027 27.292 0.436901C26.6699 0.724775 26.1179 1.14455 25.6742 1.6671L16.6016 12.8038L17.3576 23.5549L19.588 20.6516L26.8083 29.8982C27.2392 30.5449 27.8232 31.0752 28.5084 31.4419C29.1937 31.8085 29.9588 32.0003 30.736 32H39.1395L25.8368 14.6523Z" fill="black"/>
<path d="M8.48828 23.5132V31.9999H17.3492V23.5132H15.2512H8.48828Z" fill="url(#paint0_linear_4194_18385)"/>
<path d="M25.8344 14.6519H17.3477V16.7499V23.5128H25.8344V14.6519Z" fill="url(#paint1_linear_4194_18385)"/>
<path d="M17.3492 6.16553H8.48828V14.6522H17.3492V6.16553Z" fill="url(#paint2_linear_4194_18385)"/>
<path d="M8.48671 14.6519H0V23.5128H8.48671V14.6519Z" fill="url(#paint3_linear_4194_18385)"/>
<path d="M17.3492 14.6519H8.48828V23.5128H15.2512H17.3492V16.7499V14.6519Z" fill="url(#paint4_linear_4194_18385)"/>
<path d="M17.3492 14.6519H8.48828V23.5128H15.2512H17.3492V16.7499V14.6519Z" fill="url(#paint5_linear_4194_18385)"/>
<path d="M90.6562 24.2954V24.1934C90.6562 19.0295 94.5764 16.3531 100.436 16.3531C102.473 16.3548 104.497 16.6815 106.431 17.3208V16.905C106.431 14.3231 104.817 12.8488 101.449 12.8488C99.0884 12.8438 96.7511 13.3143 94.5764 14.2324L93.586 10.8301C93.47 10.4474 93.4312 10.0455 93.4716 9.64767C93.5121 9.24984 93.631 8.86398 93.8215 8.51241C94.0121 8.16085 94.2705 7.85056 94.5817 7.59952C94.893 7.34847 95.2509 7.16164 95.6349 7.04985C97.9936 6.39415 100.434 6.07722 102.882 6.10856C107.361 6.12368 110.385 7.18216 112.381 9.17058C114.272 11.0154 115.058 13.5973 115.058 17.1092V31.4439H106.386V28.862C104.677 30.7522 102.326 31.9996 99.0522 31.9996C94.3004 31.9996 90.6562 29.2778 90.6562 24.2954ZM106.533 22.4053V21.2523C105.45 20.8244 104.296 20.6051 103.131 20.6059C100.595 20.6059 99.1165 21.8534 99.1165 23.6982V23.7889C99.1165 25.4976 100.409 26.5107 102.209 26.5107C104.715 26.5107 106.526 24.8965 106.526 22.4053H106.533Z" fill="black"/>
<path d="M166.898 24.2955V24.1935C166.898 19.0296 170.819 16.3532 176.674 16.3532C178.711 16.3549 180.735 16.6816 182.67 17.3209V16.9051C182.67 14.3345 181.074 12.8527 177.691 12.8527C175.331 12.8472 172.993 13.3178 170.819 14.2362L169.824 10.834C169.708 10.4513 169.67 10.0494 169.71 9.65155C169.75 9.25371 169.869 8.86785 170.06 8.51629C170.25 8.16472 170.509 7.85444 170.82 7.60339C171.131 7.35234 171.489 7.16552 171.873 7.05372C174.232 6.39828 176.672 6.08135 179.12 6.11244C183.592 6.11244 186.639 7.17469 188.62 9.15933C190.51 11.0041 191.296 13.586 191.296 17.0979V31.444H182.624V28.8621C180.919 30.7522 178.568 31.9997 175.291 31.9997C170.543 31.9997 166.898 29.2779 166.898 24.2955ZM182.776 22.4054V21.2524C181.692 20.8242 180.538 20.6048 179.373 20.606C176.837 20.606 175.362 21.8535 175.362 23.6983V23.789C175.362 25.4977 176.652 26.5108 178.451 26.5108C180.965 26.5108 182.764 24.8966 182.764 22.4054H182.776Z" fill="black"/>
<path d="M116.531 19.1546V19.0639C116.531 11.8398 121.695 6.12402 129.006 6.12402C137.553 6.12402 141.481 12.3879 141.481 19.6574C141.481 20.2055 141.481 20.8444 141.436 21.4379H124.897C125.581 24.137 127.543 25.5093 130.242 25.5093C132.303 25.5093 133.947 24.7305 135.731 22.9954L138.755 25.5093C138.995 25.7093 139.189 25.9589 139.324 26.241C139.458 26.523 139.53 26.8308 139.534 27.1432C139.539 27.4557 139.475 27.7653 139.349 28.051C139.222 28.3366 139.035 28.5915 138.801 28.7981C136.567 30.7714 133.633 32 129.777 32C122.016 32 116.531 26.8399 116.531 19.1546ZM133.353 17.0112C133.032 14.2705 131.433 12.5316 129.055 12.5316C126.768 12.5316 125.215 14.3159 124.757 17.0112H133.353Z" fill="black"/>
<path d="M91.2884 32H82.5409C82.0815 31.9995 81.6294 31.8857 81.2246 31.6688C80.8197 31.4518 80.4746 31.1384 80.2198 30.7563L73.2452 20.1715C73.2445 18.9629 73.6809 17.7948 74.4738 16.8827C75.262 15.9685 76.3478 15.362 77.5396 15.1702C78.7757 14.9661 79.6868 14.6561 80.0837 14.3348C80.4903 13.9999 80.8142 13.5755 81.0299 13.0949C81.2456 12.6143 81.3474 12.0903 81.3274 11.5639V11.4731C81.3274 8.95924 79.5015 7.69285 76.5302 7.69285H70.7162V29.4105C70.7162 30.0973 70.4434 30.7559 69.9577 31.2416C69.4721 31.7272 68.8135 32 68.1267 32H61.8477V0H76.9687C81.8604 0 85.24 1.28151 87.3909 3.47407C89.2811 5.30372 90.2262 7.77224 90.2262 10.925V11.0157C90.2262 15.9074 87.6178 19.1546 83.6409 20.8444L91.2884 32Z" fill="black"/>
</g>
<defs>
<linearGradient id="paint0_linear_4194_18385" x1="24.7472" y1="14.8261" x2="5.67954" y2="35.6668" gradientUnits="userSpaceOnUse">
<stop stop-color="#EB001B"/>
<stop offset="1" stop-color="#F79E1B"/>
</linearGradient>
<linearGradient id="paint1_linear_4194_18385" x1="25.1501" y1="15.1924" x2="6.07866" y2="36.0368" gradientUnits="userSpaceOnUse">
<stop stop-color="#EB001B"/>
<stop offset="1" stop-color="#F79E1B"/>
</linearGradient>
<linearGradient id="paint2_linear_4194_18385" x1="16.1093" y1="6.92158" x2="-2.96216" y2="27.7622" gradientUnits="userSpaceOnUse">
<stop stop-color="#EB001B"/>
<stop offset="1" stop-color="#F79E1B"/>
</linearGradient>
<linearGradient id="paint3_linear_4194_18385" x1="15.707" y1="6.55451" x2="-3.36444" y2="27.3952" gradientUnits="userSpaceOnUse">
<stop stop-color="#EB001B"/>
<stop offset="1" stop-color="#F79E1B"/>
</linearGradient>
<linearGradient id="paint4_linear_4194_18385" x1="20.4302" y1="10.8754" x2="1.35868" y2="31.716" gradientUnits="userSpaceOnUse">
<stop stop-color="#EB001B"/>
<stop offset="1" stop-color="#F79E1B"/>
</linearGradient>
<linearGradient id="paint5_linear_4194_18385" x1="15.7993" y1="16.2282" x2="9.07044" y2="22.8891" gradientUnits="userSpaceOnUse">
<stop stop-color="#DE0503"/>
<stop offset="1" stop-color="#E62103"/>
</linearGradient>
<clipPath id="clip0_4194_18385">
<rect width="191.297" height="32" fill="white"/>
</clipPath>
</defs>
</svg>
